<?xml version="1.0" standalone="no"?>
<!DOCTYPE svg PUBLIC "-//W3C//DTD SVG 20010904//EN"
 "http://www.w3.org/TR/2001/REC-SVG-20010904/DTD/svg10.dtd">
<svg version="1.0" xmlns="http://www.w3.org/2000/svg"
 width="2048.000000pt" height="2048.000000pt" viewBox="0 0 2048.000000 2048.000000"
 preserveAspectRatio="xMidYMid meet">

<g transform="translate(0.000000,2048.000000) scale(0.100000,-0.100000)"
fill="#000000" stroke="none">
<path d="M8175 14110 c-38 -4 -83 -12 -98 -19 -16 -6 -39 -11 -51 -11 -13 0
-50 -12 -82 -26 -89 -40 -224 -94 -234 -94 -13 0 -209 -96 -245 -120 -16 -11
-43 -27 -60 -34 -16 -8 -48 -31 -69 -50 -22 -20 -47 -36 -55 -36 -9 0 -43 -25
-76 -55 -33 -31 -80 -68 -104 -82 -53 -31 -154 -130 -234 -230 -32 -39 -68
-78 -80 -86 -12 -8 -37 -41 -56 -73 -18 -33 -57 -95 -86 -139 -57 -88 -149
-285 -163 -353 -6 -23 -17 -53 -26 -67 -9 -13 -16 -34 -16 -45 0 -12 -9 -40
-20 -62 -11 -23 -20 -52 -20 -65 0 -13 -7 -38 -16 -56 -12 -23 -19 -82 -27
-227 -13 -238 -13 -318 1 -625 10 -240 15 -272 57 -362 9 -17 18 -46 22 -65 3
-18 12 -42 18 -53 7 -11 16 -38 20 -60 4 -22 15 -48 26 -58 10 -10 19 -29 19
-42 0 -14 8 -29 20 -35 11 -6 20 -21 20 -33 0 -26 33 -100 61 -136 11 -13 19
-32 19 -42 0 -10 6 -22 13 -26 6 -4 21 -25 32 -45 72 -135 341 -425 508 -550
333 -247 763 -411 1177 -449 177 -16 484 -6 630 21 430 79 761 225 1070 470
105 84 306 290 381 390 217 293 360 633 426 1015 24 141 25 597 0 735 -78 447
-262 832 -548 1150 -62 69 -117 127 -123 129 -5 2 -48 40 -95 84 -86 80 -175
147 -241 183 -19 10 -46 28 -60 40 -69 60 -405 200 -550 229 -19 4 -46 12 -60
18 -27 12 -115 33 -195 47 -59 10 -728 10 -830 0z m651 -815 c187 -33 390
-114 521 -210 35 -25 66 -45 70 -45 19 -1 260 -259 283 -303 14 -27 33 -53 43
-58 9 -5 17 -18 17 -28 0 -10 9 -30 20 -44 11 -14 20 -30 20 -37 0 -7 9 -23
20 -37 11 -14 20 -36 20 -48 0 -12 9 -32 20 -45 11 -13 20 -35 20 -50 0 -15 8
-38 19 -51 10 -13 24 -49 31 -79 7 -30 16 -65 21 -78 5 -13 9 -164 9 -337 l0
-314 -36 -143 c-20 -79 -46 -161 -57 -183 -12 -22 -26 -54 -32 -70 -12 -33
-85 -135 -97 -135 -4 0 -18 -22 -32 -50 -31 -62 -224 -257 -286 -288 -25 -13
-50 -30 -57 -39 -12 -16 -45 -35 -133 -78 -30 -15 -76 -38 -102 -51 -104 -54
-128 -57 -483 -58 -225 0 -341 4 -365 12 -19 6 -47 14 -61 16 -14 3 -42 17
-63 31 -20 14 -45 25 -55 25 -10 0 -30 9 -44 20 -14 11 -30 20 -37 20 -15 0
-95 47 -110 65 -7 8 -20 15 -29 15 -19 0 -127 95 -234 205 -225 233 -363 562
-387 925 -39 601 254 1154 745 1403 124 63 219 94 370 122 99 19 343 18 451 0z"/>
<path d="M2460 11860 l0 -2181 1133 4 1132 3 115 28 c145 35 281 85 390 143
412 220 640 648 616 1158 -7 152 -22 236 -65 359 -36 102 -85 196 -144 276
-59 80 -224 237 -274 261 -24 11 -43 25 -43 30 0 5 -12 12 -27 15 -16 4 -39
14 -53 24 -14 9 -54 31 -90 49 -36 18 -69 37 -74 41 -4 5 18 25 50 46 33 20
90 67 128 103 210 203 295 452 275 807 -11 181 -73 372 -172 527 -44 68 -184
217 -224 238 -15 7 -50 31 -76 51 -27 21 -55 38 -62 38 -7 0 -18 7 -26 16 -17
21 -124 69 -239 107 l-95 32 -1087 3 -1088 3 0 -2181z m1862 1354 c50 -18 125
-61 168 -96 15 -13 49 -62 90 -132 22 -37 24 -49 23 -205 -1 -156 -2 -166 -22
-180 -12 -7 -21 -23 -21 -35 0 -30 -94 -126 -150 -155 -25 -13 -56 -29 -70
-37 -20 -11 -111 -14 -487 -14 l-463 0 0 440 0 441 438 -4 c405 -3 441 -5 494
-23z m141 -1632 c108 -30 233 -98 293 -159 57 -58 124 -148 124 -166 0 -7 7
-23 16 -35 11 -16 17 -59 21 -162 7 -153 -2 -200 -54 -306 -26 -51 -151 -194
-171 -194 -5 0 -35 -16 -67 -35 -32 -19 -78 -38 -104 -42 -25 -4 -289 -8 -586
-8 l-540 0 -3 568 -2 569 497 -4 c471 -4 502 -6 576 -26z"/>
<path d="M11282 13643 l3 -398 928 -3 927 -2 0 -24 c0 -27 -18 -71 -60 -141
-16 -27 -35 -61 -40 -74 -6 -13 -24 -41 -41 -62 -16 -21 -34 -51 -40 -68 -6
-17 -15 -31 -19 -31 -5 0 -25 -29 -45 -65 -20 -36 -41 -67 -46 -71 -5 -3 -9
-16 -9 -29 0 -14 -9 -29 -20 -35 -11 -6 -20 -20 -20 -32 0 -12 -8 -31 -19 -42
-19 -21 -57 -87 -95 -161 -11 -22 -25 -44 -32 -50 -6 -5 -35 -53 -64 -105 -29
-52 -57 -96 -61 -98 -5 -2 -9 -10 -9 -19 0 -16 -60 -116 -97 -163 -13 -15 -23
-32 -23 -37 0 -6 -14 -29 -31 -52 -17 -24 -39 -62 -50 -84 -11 -23 -25 -51
-32 -62 -7 -11 -25 -42 -42 -70 -16 -27 -46 -75 -66 -106 -21 -30 -61 -100
-90 -155 -28 -54 -60 -111 -70 -125 -10 -14 -21 -37 -24 -51 -4 -15 -13 -29
-21 -32 -8 -3 -14 -13 -14 -23 0 -10 -9 -29 -20 -43 -11 -14 -20 -30 -20 -37
0 -14 -56 -99 -71 -108 -5 -4 -9 -13 -9 -22 0 -9 -8 -26 -19 -37 -10 -12 -40
-63 -67 -115 -26 -51 -54 -95 -61 -98 -7 -3 -13 -11 -13 -18 0 -7 -25 -52 -55
-101 -30 -49 -63 -106 -72 -126 -9 -21 -20 -38 -25 -38 -4 0 -8 -11 -8 -25 0
-14 -9 -33 -20 -42 -11 -10 -20 -23 -20 -30 0 -7 -13 -27 -29 -45 -15 -18 -38
-53 -49 -78 -34 -70 -89 -167 -131 -229 -21 -31 -55 -87 -75 -124 -21 -38 -51
-83 -67 -101 -16 -19 -29 -43 -29 -55 l0 -21 1700 0 1700 0 0 395 0 395 -965
0 c-908 0 -965 1 -974 17 -7 13 -6 23 3 33 12 13 227 384 556 955 410 712 494
859 578 1000 52 88 129 219 170 290 41 72 102 177 137 235 34 58 127 215 207
350 79 135 191 324 248 420 57 96 116 194 131 216 16 23 25 44 22 48 -4 3
-755 6 -1670 6 l-1663 0 2 -397z"/>
<path d="M15040 11860 l0 -2180 460 0 460 0 0 800 0 800 319 0 c345 0 465 10
646 54 278 68 479 177 660 360 187 188 300 406 352 678 25 132 25 458 0 581
-35 171 -107 353 -183 460 -19 26 -34 50 -34 53 0 16 -99 130 -182 209 -101
96 -284 218 -373 249 -166 57 -251 79 -390 98 -39 6 -437 12 -902 14 l-833 5
0 -2181z m1588 1351 c41 -12 97 -33 125 -47 51 -27 207 -171 207 -192 0 -7 13
-30 29 -52 46 -63 55 -121 49 -311 -6 -183 0 -160 -83 -295 -35 -57 -115 -137
-161 -161 -18 -10 -66 -35 -106 -56 l-74 -37 -325 2 -324 3 -3 589 -2 588 297
-5 c268 -4 305 -7 371 -26z"/>
<path d="M2480 9140 l0 -100 7735 0 7735 0 0 100 0 100 -7735 0 -7735 0 0
-100z"/>
<path d="M3100 8299 c-63 -32 -124 -58 -135 -59 -12 0 -26 -5 -32 -11 -13 -13
-165 -57 -233 -68 -25 -4 -70 -16 -100 -26 -30 -10 -61 -20 -68 -21 -10 -3
-12 -94 -10 -461 l3 -458 44 -85 c83 -161 170 -261 328 -379 81 -59 281 -171
308 -171 25 0 136 60 253 136 104 68 282 244 330 325 17 30 48 93 67 140 l35
84 0 186 c0 131 -4 189 -12 197 -7 7 -28 12 -48 12 -20 0 -41 -5 -48 -12 -8
-8 -12 -65 -12 -187 -1 -97 -4 -194 -9 -216 -10 -49 -98 -174 -190 -270 -86
-89 -292 -234 -335 -236 -65 -4 -101 3 -116 21 -8 10 -35 29 -60 41 -25 12
-60 36 -79 52 -18 16 -45 34 -60 40 -35 16 -66 47 -135 137 -63 81 -98 145
-127 229 -17 49 -19 89 -19 423 l0 368 23 9 c12 5 56 15 97 21 107 17 219 54
343 113 l107 50 93 -46 c122 -60 280 -109 402 -123 85 -10 86 -15 14 -91 -80
-84 -182 -192 -232 -247 -20 -22 -41 -44 -45 -48 -93 -92 -209 -203 -247 -236
l-48 -42 -92 90 c-102 99 -122 107 -182 70 -37 -22 -48 -54 -39 -105 6 -28 37
-65 151 -181 93 -94 152 -146 167 -147 18 -2 72 50 252 243 126 135 357 371
513 525 269 266 283 282 283 316 0 30 -7 43 -35 68 -55 48 -77 41 -165 -48
-72 -73 -110 -87 -198 -71 -37 6 -94 20 -127 31 -33 10 -70 19 -83 19 -46 0
-249 89 -324 141 -14 11 -32 18 -40 17 -7 0 -65 -27 -128 -59z"/>
<path d="M8635 7850 c-101 -9 -174 -39 -246 -102 -71 -61 -112 -133 -129 -227
-10 -58 -9 -67 14 -129 46 -120 104 -161 327 -232 86 -28 171 -60 190 -73 53
-35 105 -162 81 -195 -7 -10 -21 -31 -32 -48 -14 -21 -41 -40 -86 -59 -56 -24
-74 -27 -137 -23 -88 6 -153 35 -238 109 -52 46 -61 50 -76 38 -30 -22 -82
-83 -83 -96 0 -19 109 -122 153 -144 100 -51 272 -72 389 -48 123 26 229 103
270 197 43 97 34 238 -22 326 -27 41 -150 136 -178 136 -5 0 -29 9 -53 20 -24
11 -59 20 -78 20 -19 0 -42 7 -51 15 -9 8 -38 19 -64 24 -58 11 -121 67 -138
123 -31 103 88 201 224 185 56 -7 138 -43 182 -80 l30 -24 55 60 c31 33 58 64
59 69 9 23 -89 95 -173 127 -33 12 -70 27 -83 32 -13 5 -26 8 -30 7 -4 -1 -38
-4 -77 -8z"/>
<path d="M7139 7831 c-82 -16 -230 -103 -310 -181 -35 -35 -116 -177 -134
-236 -17 -58 -22 -379 -5 -389 6 -3 10 -18 10 -33 0 -15 14 -47 30 -72 16 -25
30 -49 30 -53 0 -5 37 -45 81 -88 127 -124 223 -163 399 -163 165 1 271 40
379 140 80 73 133 155 168 256 25 74 28 97 28 208 0 130 -19 220 -65 310 -34
66 -108 155 -148 178 -22 12 -42 29 -46 37 -3 8 -12 15 -19 15 -8 0 -21 9 -28
21 -28 41 -255 72 -370 50z m162 -171 c74 -14 145 -51 203 -105 68 -64 89 -99
110 -187 25 -103 18 -297 -14 -362 -11 -23 -20 -47 -20 -53 0 -17 -69 -95
-105 -120 -18 -12 -45 -25 -61 -28 -16 -4 -38 -10 -49 -15 -11 -4 -33 -13 -48
-19 -50 -20 -138 -11 -200 21 -10 5 -37 19 -60 30 -96 49 -172 177 -199 335
-15 88 0 200 37 280 49 107 165 200 275 222 63 12 70 12 131 1z"/>
<path d="M14367 7235 c-140 -330 -254 -602 -252 -605 2 -3 47 -3 100 0 l98 5
48 120 c26 66 50 128 52 138 5 16 27 17 286 17 l281 0 29 -62 c16 -35 42 -98
58 -140 l28 -78 103 0 c80 0 103 3 99 13 -3 6 -65 149 -137 317 -73 168 -184
427 -247 575 -64 149 -120 275 -125 282 -5 6 -43 13 -88 15 l-78 3 -255 -600z
m427 100 c53 -132 96 -244 96 -248 0 -4 -88 -7 -195 -7 -175 1 -224 7 -196 24
5 3 50 111 102 241 51 129 94 233 95 232 2 -1 46 -110 98 -242z"/>
<path d="M16042 7814 c-105 -35 -169 -82 -275 -203 -79 -92 -113 -221 -111
-430 2 -148 9 -188 50 -274 70 -147 189 -238 377 -287 78 -21 267 -8 348 23
67 25 142 68 153 86 4 6 -15 33 -42 60 -46 49 -83 64 -97 40 -14 -21 -122 -61
-181 -66 -84 -7 -151 10 -221 56 -85 56 -153 135 -183 212 -22 57 -25 79 -25
195 l0 130 38 76 c47 96 130 176 214 208 84 32 218 26 293 -13 28 -15 57 -27
64 -27 18 0 116 103 116 122 0 30 -99 85 -192 107 -26 6 -93 11 -150 10 -82 0
-118 -5 -176 -25z"/>
<path d="M11140 7230 l0 -600 85 0 85 0 2 463 3 462 30 -45 c16 -25 33 -47 36
-50 4 -3 21 -29 39 -57 17 -29 36 -53 41 -53 5 0 9 -6 9 -14 0 -8 10 -27 23
-43 13 -15 31 -41 39 -58 8 -16 26 -50 38 -75 26 -51 156 -249 193 -295 13
-16 30 -41 37 -55 7 -14 40 -60 74 -102 l61 -77 118 -1 117 0 0 600 0 600 -85
0 -85 0 0 -479 c0 -264 -3 -482 -8 -484 -4 -3 -35 36 -69 86 -85 127 -275 418
-289 442 -32 60 -137 215 -145 215 -5 0 -9 6 -9 14 0 19 -76 144 -108 179 -25
26 -29 27 -129 27 l-103 0 0 -600z"/>
<path d="M12960 7230 l0 -600 313 0 313 0 29 25 c17 14 51 41 77 60 69 52 109
138 110 237 0 45 -6 89 -16 111 -19 47 -107 141 -146 157 -35 14 -38 26 -10
35 36 11 100 95 116 153 20 69 15 170 -13 233 -24 54 -104 147 -147 171 -27
15 -67 17 -328 18 l-298 0 0 -600z m541 416 c39 -16 55 -34 87 -92 28 -53 28
-61 -5 -131 -49 -108 -37 -103 -265 -103 l-198 0 0 170 0 170 174 0 c127 0
183 -4 207 -14z m-18 -497 c22 -7 57 -29 78 -48 34 -31 42 -46 53 -103 17 -79
13 -99 -26 -154 -20 -28 -40 -44 -60 -48 -17 -3 -115 -6 -219 -6 l-189 0 0
191 0 192 163 -6 c90 -3 179 -11 200 -18z"/>
<path d="M5400 7215 l0 -585 90 0 90 0 0 225 0 225 98 0 97 0 50 -67 c27 -38
58 -85 68 -105 10 -21 30 -48 43 -60 13 -13 24 -28 24 -34 0 -6 18 -36 40 -68
22 -31 40 -60 40 -65 0 -4 10 -17 23 -29 21 -20 34 -22 125 -22 58 0 102 4
102 10 0 5 -25 44 -55 87 -30 43 -71 103 -91 133 -20 30 -43 59 -50 63 -8 4
-14 14 -14 20 0 7 -22 45 -50 85 -27 40 -50 76 -50 80 0 4 20 15 44 25 59 24
133 100 165 167 23 48 26 68 26 155 0 122 -19 172 -97 249 -98 97 -95 96 -428
96 l-290 0 0 -585z m500 435 c65 -11 110 -41 110 -74 0 -8 7 -16 15 -20 12 -4
15 -27 15 -114 l0 -108 -52 -49 -51 -48 -122 -5 c-68 -2 -148 -1 -179 2 l-56
7 0 210 0 209 128 0 c70 0 156 -5 192 -10z"/>
<path d="M9540 7220 l0 -580 450 0 450 0 0 75 0 75 -365 0 -365 0 0 175 0 175
325 0 325 0 0 85 0 85 -325 0 -325 0 0 170 0 170 365 0 365 0 0 75 0 75 -450
0 -450 0 0 -580z"/>
<path d="M17040 7215 l0 -585 85 0 85 0 0 250 0 250 280 0 280 0 0 -250 0
-250 90 0 90 0 0 585 0 585 -85 0 -85 0 0 -260 0 -260 -285 0 -285 0 0 260 0
260 -85 0 -85 0 0 -585z"/>
</g>
</svg>
